<svg width="20" height="20" viewBox="0 0 20 20" fill="none" xmlns="http://www.w3.org/2000/svg">
  <mask id="mask0_872_1590" style="mask-type:luminance" maskUnits="userSpaceOnUse" x="1" y="0"
    width="18" height="19">
    <path fill-rule="evenodd" clip-rule="evenodd"
      d="M1.66699 0.833496H18.7502V18.7543H1.66699V0.833496Z" fill="white" />
  </mask>
  <g mask="url(#mask0_872_1590)">
    <path fill-rule="evenodd" clip-rule="evenodd"
      d="M11.4312 12.7429C12.4345 12.7429 13.2512 13.5537 13.2512 14.5504V17.1137C13.2512 17.3279 13.4228 17.4995 13.6428 17.5045H15.2312C16.4828 17.5045 17.5003 16.4995 17.5003 15.2645V7.99454C17.4945 7.56954 17.292 7.16954 16.9445 6.9037L11.4503 2.52204C10.7128 1.93787 9.68116 1.93787 8.94116 2.5237L3.48449 6.90204C3.12366 7.1762 2.92116 7.5762 2.91699 8.0087V15.2645C2.91699 16.4995 3.93449 17.5045 5.18616 17.5045H6.78949C7.01533 17.5045 7.19866 17.3254 7.19866 17.1054C7.19866 17.057 7.20449 17.0087 7.21449 16.9629V14.5504C7.21449 13.5595 8.02616 12.7495 9.02199 12.7429H11.4312ZM15.2312 18.7545H13.6278C12.7095 18.7329 12.0012 18.012 12.0012 17.1137V14.5504C12.0012 14.2429 11.7453 13.9929 11.4312 13.9929H9.02616C8.71866 13.9945 8.46449 14.2454 8.46449 14.5504V17.1054C8.46449 17.1679 8.45616 17.2279 8.43866 17.2845C8.34866 18.1095 7.64366 18.7545 6.78949 18.7545H5.18616C3.24533 18.7545 1.66699 17.1887 1.66699 15.2645V8.00287C1.67533 7.17454 2.05699 6.4162 2.71616 5.91704L8.16199 1.5462C9.36116 0.596205 11.032 0.596205 12.2287 1.54454L17.7137 5.91954C18.3578 6.41037 18.7395 7.16704 18.7503 7.98537V15.2645C18.7503 17.1887 17.172 18.7545 15.2312 18.7545Z"
      fill="#4F4F4F" />
  </g>
</svg>
  